<svg xmlns="http://www.w3.org/2000/svg" width="250" height="300" viewBox="0 0 250 300"><defs><radialGradient id="l"><stop stop-color="#ffe2a0"/><stop offset="1" stop-color="#e68128" stop-opacity="0"/></radialGradient></defs><g><rect x="8" y="40" width="36" height="248" rx="5" fill="#413a34" stroke="#1b1918" stroke-width="6"/><rect x="206" y="40" width="36" height="248" rx="5" fill="#413a34" stroke="#1b1918" stroke-width="6"/><circle cx="27" cy="42" r="30" fill="url(#l)" opacity=".65"/><circle cx="224" cy="42" r="30" fill="url(#l)" opacity=".65"/><path d="M18 39 h18 l-3 23 H21Z M215 39 h18 l-3 23 h-12Z" fill="#e8a54d" stroke="#171717" stroke-width="4"/></g><g fill="none" stroke="#171719" stroke-width="7"><path d="M43 286 V100 Q125 13 207 100 V286"/><path d="M62 286 V91 M84 286 V68 M106 286 V52 M128 286 V48 M150 286 V55 M172 286 V70 M194 286 V95"/><path d="M43 112 H207 M43 154 H207"/></g><g fill="#171719"><path d="M58 91 l5-17 5 17z M80 69 l5-17 5 17z M102 53 l5-17 5 17z M124 49 l5-19 5 19z M146 56 l5-17 5 17z M168 71 l5-17 5 17z M190 96 l5-17 5 17z"/></g></svg>