<svg xmlns="http://www.w3.org/2000/svg" width="256" height="128" viewBox="0 0 256 128"><rect width="256" height="128" fill="#23262a"/><path d="M0 20 Q45 4 86 22 T166 17 T256 18 V46 Q217 53 178 42 T98 48 T0 43Z" fill="#2c3036"/><path d="M0 65 Q54 47 101 69 T191 62 T256 70 V96 Q209 108 168 93 T80 102 T0 94Z" fill="#1b1e21"/><g fill="#343a40" opacity=".72"><ellipse cx="36" cy="31" rx="22" ry="9"/><ellipse cx="128" cy="81" rx="30" ry="12"/><ellipse cx="216" cy="42" rx="27" ry="11"/><ellipse cx="65" cy="111" rx="33" ry="8"/></g><g stroke="#14171a" stroke-width="5" opacity=".72"><path d="M0 56 H45 M226 56 H256 M0 118 H37 M225 118 H256"/></g></svg>