<svg xmlns="http://www.w3.org/2000/svg" width="220" height="140" viewBox="0 0 220 140">
<defs>
 <linearGradient id="body" x1="0" y1="0" x2="1" y2="1"><stop stop-color="#a85843"/><stop offset=".55" stop-color="#78382f"/><stop offset="1" stop-color="#452a2d"/></linearGradient>
 <linearGradient id="top" x1="0" y1="0" x2="0" y2="1"><stop stop-color="#c66f50"/><stop offset="1" stop-color="#71352f"/></linearGradient>
</defs>
<g stroke-linejoin="round">
 <ellipse cx="112" cy="119" rx="82" ry="12" fill="#111824" opacity=".25"/>
 <path d="M41 97 L50 58 L77 34 L128 29 L169 48 L190 81 L178 105 L56 108 Z" fill="url(#body)" stroke="#32242a" stroke-width="6"/>
 <path d="M57 63 L84 31 L105 58 L129 25 L144 56 L166 42 L172 71 L92 76 Z" fill="url(#top)" stroke="#4a292d" stroke-width="5"/>
 <path d="M45 76 L18 51 L58 58 Z" fill="#d6a074" stroke="#4b302f" stroke-width="5"/>
 <path d="M73 88 L50 113 L79 111 Z M150 94 L140 118 L169 113 Z" fill="#382a2b" stroke="#261d22" stroke-width="5"/>
 <path d="M52 108 l-12 18 h27 l8-18 M150 109 l-7 18 h29 l7-18" fill="#5a3933" stroke="#302326" stroke-width="5"/>
 <path d="M42 83 Q62 69 79 81 Q63 96 44 91Z" fill="#efe9dc"/>
 <ellipse cx="54" cy="84" rx="6" ry="8" fill="#251b1d"/>
 <path d="M86 51 L102 36 L111 61 M121 52 L134 36 L145 63" fill="none" stroke="#e4b18a" stroke-width="7"/>
 <path d="M185 82 L203 73 L187 96 Z" fill="#cf8d69" stroke="#4a2c2d" stroke-width="4"/>
</g></svg>